<?xml version="1.0" encoding="UTF-8"?><svg id="a" xmlns="http://www.w3.org/2000/svg" viewBox="0 0 346 84"><defs><style>.b{letter-spacing:.1em;}.c{letter-spacing:.1em;}.d{letter-spacing:.1em;}.e{fill:#e8456d;}.f,.g{fill:#cccbcb;}.g{font-family:Montserrat-Regular, Montserrat;font-size:12.6px;}</style></defs><path class="e" d="M23.1,59.2c-2.82-6.96-5.64-13.92-8.47-20.87-2.76-6.78-5.53-13.56-8.3-20.34C4.25,12.92,2.17,7.85,.09,2.78c-.15-.37-.15-.37,.26-.37,9.63,0,19.25,0,28.88,0,.27,0,.38,.09,.46,.34,1.85,5.82,3.72,11.63,5.58,17.45,2.49,7.82,4.98,15.64,7.47,23.46,.51,1.61,1.03,3.23,1.55,4.84,.04,.11,.03,.25,.18,.35,.25-.78,.49-1.53,.73-2.29,1.16-3.68,2.32-7.36,3.48-11.04,2.64-8.35,5.27-16.7,7.91-25.05,.81-2.56,1.62-5.12,2.42-7.68,.08-.27,.19-.37,.48-.37,9.39,0,18.78,0,28.17,0,.11,0,.22,0,.37,.02-6.78,16.86-13.54,33.68-20.3,50.5-.08,.1-.19,.11-.3,.12-1.48,.07-2.97,.2-4.45,.31-1.63,.13-3.26,.26-4.89,.41-1.7,.16-3.41,.31-5.11,.48-1.71,.17-3.43,.36-5.14,.56-1.63,.18-3.25,.38-4.87,.6-.23,.03-.41-.06-.58-.2-.7-.59-1.36-1.23-2.04-1.84-1.27-1.14-2.56-2.27-3.82-3.42-.4-.36-.86-.61-1.42-.35-.41,.19-.47,.33-.24,.71,.72,1.25,1.43,2.5,2.14,3.75,.28,.48,.56,.97,.83,1.45,.26,.46,.21,.58-.3,.66-1.48,.23-2.96,.47-4.44,.74-3.21,.6-6.39,1.3-9.52,2.25-.15,.05-.3,.14-.47,.05"/><path class="e" d="M63.99,62.19c-2.46,6.12-4.92,12.24-7.37,18.37-.13,.33-.3,.43-.65,.43-7.85-.01-15.71-.01-23.56,0-.35,0-.52-.09-.65-.43-1.91-4.74-3.83-9.47-5.75-14.2-.02-.05-.03-.09-.04-.14,.21-.26,.53-.3,.82-.39,2.37-.77,4.8-1.23,7.26-1.6,2.01-.3,4.03-.52,6.06-.73,.44-.05,.59,.06,.56,.5-.08,1.03-.1,2.05-.19,3.08-.05,.51-.06,1.01-.08,1.52-.07,1.6-.22,3.19-.25,4.79,0,.17-.05,.36,.16,.45,.23,.11,.32-.11,.46-.22,1.01-.79,1.25-1.99,1.67-3.1,.88-2.32,1.68-4.67,2.49-7.01,.11-.32,.29-.47,.64-.5,1.6-.14,3.21-.26,4.82-.37,1.77-.12,3.53-.22,5.3-.3,1.3-.06,2.6-.07,3.9-.15,1.38-.09,2.75,.02,4.12-.1,.11,0,.23-.01,.3,.1"/><polygon class="f" points="109.9 34.9 102.96 52.17 97.57 52.17 90.54 34.9 97.05 34.9 100.32 45.13 103.54 34.9 109.9 34.9"/><rect class="f" x="111.58" y="39.64" width="5.95" height="12.52"/><path class="f" d="M139.87,34.88v17.26h-4.6l-.51-1.22c-1.41,1.14-3.2,1.8-5.21,1.8-5.28,0-9.05-3.85-9.05-9.22s3.77-9.15,9.05-9.15c2.03,0,3.85,.68,5.28,1.86l.61-1.33h4.43Zm-5.66,8.65c0-2.24-1.64-3.92-3.86-3.92s-3.86,1.68-3.86,3.92,1.64,3.94,3.86,3.94,3.86-1.68,3.86-3.94"/><path class="f" d="M141.05,51.42h1.46c1.4,0,2.15-.78,2.15-2.23v-15.92h5.95v16.4c0,4.32-2.71,6.87-7.32,6.87h-2.24v-5.12Z"/><path class="f" d="M172.06,34.88v17.26h-4.6l-.51-1.22c-1.41,1.14-3.2,1.8-5.21,1.8-5.28,0-9.05-3.85-9.05-9.22s3.77-9.15,9.05-9.15c2.03,0,3.85,.68,5.28,1.86l.61-1.33h4.43Zm-5.66,8.65c0-2.24-1.64-3.92-3.86-3.92s-3.86,1.68-3.86,3.92,1.64,3.94,3.86,3.94,3.86-1.68,3.86-3.94"/><polygon class="f" points="199.64 34.9 192.7 52.17 187.31 52.17 180.28 34.9 186.79 34.9 190.06 45.13 193.28 34.9 199.64 34.9"/><path class="f" d="M201.32,44.76v-9.85h5.95v9.59c0,1.82,.98,2.89,2.57,2.89s2.55-1.09,2.55-2.89v-9.59h5.95v9.85c0,4.83-3.4,7.98-8.5,7.98s-8.51-3.15-8.51-7.98"/><path class="f" d="M239.63,43.37c0,.52-.05,1.04-.12,1.57h-12.82c.39,1.98,1.65,3,3.52,3,1.39,0,2.55-.61,3.12-1.62h5.92c-1.21,3.94-4.71,6.4-9.04,6.4-5.39,0-9.38-3.94-9.38-9.21s3.96-9.18,9.38-9.18,9.42,3.97,9.42,9.03h0Zm-12.84-1.72h6.98c-.52-1.73-1.77-2.66-3.56-2.66s-2.94,.94-3.42,2.66"/><rect class="f" x="242.34" y="28.67" width="5.95" height="23.5"/><path class="f" d="M270.4,34.88v17.26h-4.6l-.51-1.22c-1.41,1.14-3.2,1.8-5.21,1.8-5.28,0-9.05-3.85-9.05-9.22s3.77-9.15,9.05-9.15c2.03,0,3.85,.68,5.28,1.86l.61-1.33h4.43Zm-5.66,8.65c0-2.24-1.64-3.92-3.86-3.92s-3.86,1.68-3.86,3.92,1.64,3.94,3.86,3.94,3.86-1.68,3.86-3.94"/><polygon class="f" points="297.98 34.9 291.04 52.17 285.65 52.17 278.62 34.9 285.13 34.9 288.4 45.13 291.62 34.9 297.98 34.9"/><rect class="f" x="299.89" y="39.64" width="5.95" height="12.52"/><polygon class="f" points="327.07 34.9 320.13 52.17 314.74 52.17 307.71 34.9 314.23 34.9 317.49 45.13 320.72 34.9 327.07 34.9"/><path class="f" d="M346,43.37c0,.52-.05,1.04-.12,1.57h-12.82c.39,1.98,1.65,3,3.52,3,1.39,0,2.55-.61,3.12-1.62h5.92c-1.21,3.94-4.71,6.4-9.04,6.4-5.39,0-9.38-3.94-9.38-9.21s3.96-9.18,9.38-9.18,9.42,3.97,9.42,9.03h0Zm-12.84-1.72h6.98c-.52-1.73-1.77-2.66-3.56-2.66s-2.94,.94-3.42,2.66"/><path class="f" d="M117.61,35.9c0,1.58-1.28,2.86-2.86,2.86s-2.86-1.28-2.86-2.86,1.28-2.86,2.86-2.86,2.86,1.28,2.86,2.86"/><path class="f" d="M305.67,35.93c0,1.58-1.28,2.86-2.86,2.86s-2.86-1.28-2.86-2.86,1.28-2.86,2.86-2.86,2.86,1.28,2.86,2.86"/><text class="g" transform="translate(193.75 69.82)"><tspan class="d" x="0" y="0">V</tspan><tspan class="b" x="10.04" y="0">I</tspan><tspan class="d" x="15.11" y="0">A</tspan><tspan class="c" x="25.39" y="0">J</tspan><tspan class="d" x="32.96" y="0">E</tspan><tspan x="42.63" y="0">S</tspan></text></svg>